<?xml version="1.0" encoding="UTF-8"?>
<svg width="64px" height="64px" viewBox="0 0 64 64" version="1.1" xmlns="http://www.w3.org/2000/svg" xmlns:xlink="http://www.w3.org/1999/xlink">
    <!-- Generator: Sketch 47.1 (45422) - http://www.bohemiancoding.com/sketch -->
    <title>Icon/Model</title>
    <desc>Created with Sketch.</desc>
    <defs>
        <linearGradient x1="-7.96781791%" y1="0%" x2="107.460653%" y2="101.180042%" id="linearGradient-1">
            <stop stop-color="#F1BF7A" offset="0%"></stop>
            <stop stop-color="#EF996B" offset="100%"></stop>
        </linearGradient>
    </defs>
    <g id="Symbols" stroke="none" stroke-width="1" fill="none" fill-rule="evenodd">
        <g id="Icon/Model">
            <polygon id="Polygon" fill="url(#linearGradient-1)" points="32.1434326 0.235961914 59.9105225 14.1445313 59.9105225 47.678833 32.1434326 63.4102783 4.4552002 47.678833 4.4552002 14.1445313"></polygon>
            <path d="M57.6666667,37.8134667 L52.8666667,21.0201333 L52.8666667,21.0134667 L57.6666667,17.4134667 L57.6666667,37.8134667 Z M34.82,49.4401333 L50.8733333,23.7534667 L56.2266667,42.4801333 L57.3,46.2268 L34.82,49.4401333 Z M33.5,60.3668 L33.5,52.3201333 L52.2733333,49.6394667 L33.5,60.3668 Z M32.1666667,48.6468 L23.56,34.8801333 L15.4066667,21.8334667 L48.9266667,21.8334667 L32.1666667,48.6468 Z M30.8333333,60.3668 L12.06,49.6401333 L30.8333333,52.3201333 L30.8333333,60.3668 Z M8.64,40.6068 L13.4533333,23.7468 L13.4606667,23.7534667 L29.5133333,49.4401333 L7.03333333,46.2268 L8.64,40.6068 Z M6.66666667,17.4134667 L11.4666667,21.0134667 L11.4666667,21.0201333 L6.66666667,37.8134667 L6.66666667,17.4134667 Z M25.4133333,6.20013333 L12.88,18.7401333 L7.866,14.9801333 L25.4133333,6.20013333 Z M32.1666667,3.22013333 L48.1133333,19.1668 L16.22,19.1668 L32.1666667,3.22013333 Z M56.4666667,14.9801333 L51.46,18.7401333 L38.92,6.20013333 L56.4666667,14.9801333 Z M60.3266667,14.6134667 C60.32,14.5734667 60.3126667,14.5334667 60.3066667,14.4934667 C60.2933333,14.4201333 60.2733333,14.3534667 60.2466667,14.2868 C60.2326667,14.2401333 60.2133333,14.2001333 60.1933333,14.1601333 C60.1666667,14.1001333 60.1333333,14.0468 60.0933333,13.9934667 C60.0666667,13.9468 60.0333333,13.9068 59.994,13.8668 C59.9606667,13.8268 59.9206667,13.7868 59.8733333,13.7468 C59.794,13.6734667 59.6933333,13.6134667 59.5933333,13.5601333 L32.7666667,0.1468 C32.7466667,0.133466667 32.7266667,0.1268 32.7066667,0.120133333 C32.6873333,0.1068 32.6666667,0.100133333 32.654,0.0934666667 C32.64,0.0868 32.6273333,0.0868 32.6133333,0.0801333333 C32.5933333,0.0734666667 32.5733333,0.0668 32.5533333,0.0601333333 C32.5266667,0.0468 32.5,0.0468 32.4733333,0.0401333333 C32.46,0.0334666667 32.44,0.0268 32.42,0.0268 L32.4066667,0.0268 C32.3266667,0.0068 32.2466667,0.000133333333 32.1666667,0.000133333333 C32.0866667,0.000133333333 32.0066667,0.0068 31.9266667,0.0268 L31.9133333,0.0268 C31.8933333,0.0268 31.88,0.0334666667 31.86,0.0401333333 C31.8333333,0.0468 31.8066667,0.0468 31.78,0.0601333333 C31.76,0.0668 31.74,0.0734666667 31.72,0.0801333333 C31.706,0.0868 31.6933333,0.0868 31.6793333,0.0934666667 C31.66,0.100133333 31.6393333,0.1068 31.6266667,0.120133333 C31.6066667,0.1268 31.5926667,0.133466667 31.5733333,0.140133333 L31.5666667,0.1468 L4.74,13.5601333 C4.64,13.6134667 4.53933333,13.6734667 4.46,13.7468 C4.41333333,13.7868 4.37333333,13.8268 4.34,13.8668 C4.3,13.9068 4.26666667,13.9468 4.24,13.9934667 C4.2,14.0468 4.16666667,14.1001333 4.14,14.1601333 C4.12,14.2001333 4.1,14.2401333 4.08666667,14.2868 C4.06,14.3534667 4.04,14.4201333 4.02666667,14.4934667 C4.02,14.5334667 4.01266667,14.5734667 4.00666667,14.6134667 C4,14.6601333 4,14.7001333 4,14.7468 L4,47.3334667 C4,47.3934667 4.00666667,47.4601333 4.01333333,47.5201333 L4.01333333,47.5334667 C4.02066667,47.5741333 4.02733333,47.6068 4.04,47.6401333 C4.04,47.6541333 4.04,47.6668 4.04733333,47.6794667 C4.04733333,47.6941333 4.054,47.7001333 4.054,47.7061333 C4.06733333,47.7534667 4.08733333,47.8008 4.10733333,47.8461333 C4.10733333,47.8608 4.114,47.8728 4.12066667,47.8808 C4.128,47.9074667 4.14066667,47.9261333 4.15466667,47.9474667 C4.16,47.9668 4.16666667,47.9801333 4.18,47.9934667 C4.2,48.0388 4.22666667,48.0801333 4.25333333,48.1134667 C4.32066667,48.2134667 4.40666667,48.3001333 4.5,48.3728 C4.54,48.4074667 4.58,48.4341333 4.62,48.4528 C4.654,48.4801333 4.68733333,48.5001333 4.72666667,48.5208 C4.73333333,48.5274667 4.73333333,48.5274667 4.74066667,48.5274667 L31.5,63.8201333 L31.5066667,63.8268 C31.7133333,63.9401333 31.94,64.0001333 32.1666667,64.0001333 C32.4,64.0001333 32.6266667,63.9401333 32.8333333,63.8201333 L59.5933333,48.5268 C59.6933333,48.4801333 59.794,48.4134667 59.8733333,48.3401333 C59.92,48.3001333 59.9673333,48.2534667 60.0066667,48.2061333 C60.04,48.1734667 60.0666667,48.1341333 60.0933333,48.0928 C60.1073333,48.0801333 60.1133333,48.0661333 60.1273333,48.0474667 C60.1406667,48.0274667 60.1466667,48.0128 60.154,47.9941333 C60.1733333,47.9608 60.194,47.9208 60.214,47.8808 C60.2473333,47.8074667 60.274,47.7328 60.294,47.6541333 C60.3073333,47.6074667 60.3133333,47.5601333 60.3206667,47.5128 C60.3273333,47.4528 60.334,47.3934667 60.334,47.3334667 L60.334,14.7468 C60.3333333,14.7001333 60.3333333,14.6601333 60.3266667,14.6134667 L60.3266667,14.6134667 Z" id="Fill-8" fill="#444444"></path>
        </g>
    </g>
</svg>